<mxfile host="app.diagrams.net" modified="2023-02-28T01:50:53.923Z" agent="5.0 (Macintosh)" etag="a6UuKlAwYm6_kZ90qJCb" version="20.5.3" type="github">
  <diagram id="h3CSzwQBVvNEi9bYj9ZV" name="Page-1">
    <mxGraphModel dx="1906" dy="587" grid="1" gridSize="10" guides="1" tooltips="1" connect="1" arrows="1" fold="1" page="1" pageScale="1" pageWidth="850" pageHeight="1100" math="0" shadow="0">
      <root>
        <mxCell id="0" />
        <mxCell id="1" parent="0" />
        <mxCell id="zE71gSJNUN73lAzTByjQ-34" style="edgeStyle=orthogonalEdgeStyle;rounded=0;orthogonalLoop=1;jettySize=auto;html=1;" edge="1" parent="1" source="zE71gSJNUN73lAzTByjQ-5" target="zE71gSJNUN73lAzTByjQ-33">
          <mxGeometry relative="1" as="geometry" />
        </mxCell>
        <mxCell id="zE71gSJNUN73lAzTByjQ-5" value="卖家" style="whiteSpace=wrap;html=1;aspect=fixed;" vertex="1" parent="1">
          <mxGeometry x="170" y="150" width="40" height="40" as="geometry" />
        </mxCell>
        <mxCell id="zE71gSJNUN73lAzTByjQ-6" value="买家" style="whiteSpace=wrap;html=1;aspect=fixed;" vertex="1" parent="1">
          <mxGeometry x="320" y="150" width="40" height="40" as="geometry" />
        </mxCell>
        <mxCell id="zE71gSJNUN73lAzTByjQ-36" style="edgeStyle=orthogonalEdgeStyle;rounded=0;orthogonalLoop=1;jettySize=auto;html=1;entryX=0.5;entryY=1;entryDx=0;entryDy=0;" edge="1" parent="1" source="zE71gSJNUN73lAzTByjQ-7" target="zE71gSJNUN73lAzTByjQ-35">
          <mxGeometry relative="1" as="geometry" />
        </mxCell>
        <mxCell id="zE71gSJNUN73lAzTByjQ-7" value="公司" style="whiteSpace=wrap;html=1;aspect=fixed;" vertex="1" parent="1">
          <mxGeometry x="425" y="150" width="40" height="40" as="geometry" />
        </mxCell>
        <mxCell id="zE71gSJNUN73lAzTByjQ-15" style="edgeStyle=orthogonalEdgeStyle;rounded=0;orthogonalLoop=1;jettySize=auto;html=1;entryX=0.5;entryY=1;entryDx=0;entryDy=0;" edge="1" parent="1" source="zE71gSJNUN73lAzTByjQ-13" target="zE71gSJNUN73lAzTByjQ-6">
          <mxGeometry relative="1" as="geometry" />
        </mxCell>
        <mxCell id="zE71gSJNUN73lAzTByjQ-16" style="edgeStyle=orthogonalEdgeStyle;rounded=0;orthogonalLoop=1;jettySize=auto;html=1;entryX=0.5;entryY=1;entryDx=0;entryDy=0;" edge="1" parent="1" source="zE71gSJNUN73lAzTByjQ-13" target="zE71gSJNUN73lAzTByjQ-5">
          <mxGeometry relative="1" as="geometry" />
        </mxCell>
        <mxCell id="zE71gSJNUN73lAzTByjQ-17" style="edgeStyle=orthogonalEdgeStyle;rounded=0;orthogonalLoop=1;jettySize=auto;html=1;entryX=0.438;entryY=1.013;entryDx=0;entryDy=0;entryPerimeter=0;" edge="1" parent="1" source="zE71gSJNUN73lAzTByjQ-13" target="zE71gSJNUN73lAzTByjQ-7">
          <mxGeometry relative="1" as="geometry" />
        </mxCell>
        <mxCell id="zE71gSJNUN73lAzTByjQ-66" value="" style="edgeStyle=orthogonalEdgeStyle;rounded=0;orthogonalLoop=1;jettySize=auto;html=1;endArrow=block;endFill=1;" edge="1" parent="1" source="zE71gSJNUN73lAzTByjQ-13" target="zE71gSJNUN73lAzTByjQ-65">
          <mxGeometry relative="1" as="geometry" />
        </mxCell>
        <mxCell id="zE71gSJNUN73lAzTByjQ-13" value="支付订单" style="whiteSpace=wrap;html=1;" vertex="1" parent="1">
          <mxGeometry x="280" y="290" width="120" height="60" as="geometry" />
        </mxCell>
        <mxCell id="zE71gSJNUN73lAzTByjQ-61" style="edgeStyle=orthogonalEdgeStyle;rounded=0;orthogonalLoop=1;jettySize=auto;html=1;endArrow=block;endFill=1;" edge="1" parent="1" source="zE71gSJNUN73lAzTByjQ-18" target="zE71gSJNUN73lAzTByjQ-60">
          <mxGeometry relative="1" as="geometry" />
        </mxCell>
        <mxCell id="zE71gSJNUN73lAzTByjQ-64" style="edgeStyle=orthogonalEdgeStyle;rounded=0;orthogonalLoop=1;jettySize=auto;html=1;entryX=0.5;entryY=1;entryDx=0;entryDy=0;endArrow=block;endFill=1;" edge="1" parent="1" source="zE71gSJNUN73lAzTByjQ-18" target="zE71gSJNUN73lAzTByjQ-63">
          <mxGeometry relative="1" as="geometry" />
        </mxCell>
        <mxCell id="zE71gSJNUN73lAzTByjQ-18" value="分账订单" style="whiteSpace=wrap;html=1;" vertex="1" parent="1">
          <mxGeometry x="-200" y="560" width="120" height="60" as="geometry" />
        </mxCell>
        <mxCell id="zE71gSJNUN73lAzTByjQ-33" value="担保账户" style="rounded=1;whiteSpace=wrap;html=1;" vertex="1" parent="1">
          <mxGeometry x="155" y="50" width="70" height="40" as="geometry" />
        </mxCell>
        <mxCell id="zE71gSJNUN73lAzTByjQ-35" value="担保账户" style="rounded=1;whiteSpace=wrap;html=1;" vertex="1" parent="1">
          <mxGeometry x="410" y="50" width="70" height="40" as="geometry" />
        </mxCell>
        <mxCell id="zE71gSJNUN73lAzTByjQ-47" style="edgeStyle=orthogonalEdgeStyle;rounded=0;orthogonalLoop=1;jettySize=auto;html=1;entryX=0.5;entryY=1;entryDx=0;entryDy=0;endArrow=none;endFill=0;dashed=1;" edge="1" parent="1" source="zE71gSJNUN73lAzTByjQ-46" target="zE71gSJNUN73lAzTByjQ-13">
          <mxGeometry relative="1" as="geometry">
            <Array as="points">
              <mxPoint x="400" y="370" />
              <mxPoint x="400" y="350" />
            </Array>
          </mxGeometry>
        </mxCell>
        <mxCell id="zE71gSJNUN73lAzTByjQ-48" value="服务" style="edgeLabel;html=1;align=center;verticalAlign=middle;resizable=0;points=[];" vertex="1" connectable="0" parent="zE71gSJNUN73lAzTByjQ-47">
          <mxGeometry x="-0.2006" relative="1" as="geometry">
            <mxPoint as="offset" />
          </mxGeometry>
        </mxCell>
        <mxCell id="zE71gSJNUN73lAzTByjQ-46" value="支付&lt;br&gt;分账&lt;br&gt;确认收货" style="shape=card;whiteSpace=wrap;html=1;" vertex="1" parent="1">
          <mxGeometry x="540" y="320" width="80" height="100" as="geometry" />
        </mxCell>
        <mxCell id="zE71gSJNUN73lAzTByjQ-52" style="edgeStyle=orthogonalEdgeStyle;rounded=0;orthogonalLoop=1;jettySize=auto;html=1;endArrow=block;endFill=1;" edge="1" parent="1" source="zE71gSJNUN73lAzTByjQ-51" target="zE71gSJNUN73lAzTByjQ-33">
          <mxGeometry relative="1" as="geometry" />
        </mxCell>
        <mxCell id="zE71gSJNUN73lAzTByjQ-51" value="提现记录" style="whiteSpace=wrap;html=1;" vertex="1" parent="1">
          <mxGeometry x="-90" y="40" width="120" height="60" as="geometry" />
        </mxCell>
        <mxCell id="zE71gSJNUN73lAzTByjQ-57" value="提现" style="shape=card;whiteSpace=wrap;html=1;" vertex="1" parent="1">
          <mxGeometry x="-90" y="190" width="80" height="100" as="geometry" />
        </mxCell>
        <mxCell id="zE71gSJNUN73lAzTByjQ-58" style="edgeStyle=orthogonalEdgeStyle;rounded=0;orthogonalLoop=1;jettySize=auto;html=1;endArrow=none;endFill=0;dashed=1;" edge="1" parent="1" source="zE71gSJNUN73lAzTByjQ-57" target="zE71gSJNUN73lAzTByjQ-51">
          <mxGeometry relative="1" as="geometry">
            <mxPoint x="190" y="200.03703703703695" as="sourcePoint" />
            <mxPoint x="-10" y="180" as="targetPoint" />
          </mxGeometry>
        </mxCell>
        <mxCell id="zE71gSJNUN73lAzTByjQ-59" value="服务" style="edgeLabel;html=1;align=center;verticalAlign=middle;resizable=0;points=[];" vertex="1" connectable="0" parent="zE71gSJNUN73lAzTByjQ-58">
          <mxGeometry x="-0.2006" relative="1" as="geometry">
            <mxPoint as="offset" />
          </mxGeometry>
        </mxCell>
        <mxCell id="zE71gSJNUN73lAzTByjQ-60" value="分账记录" style="whiteSpace=wrap;html=1;" vertex="1" parent="1">
          <mxGeometry x="-40" y="560" width="120" height="60" as="geometry" />
        </mxCell>
        <mxCell id="zE71gSJNUN73lAzTByjQ-63" value="支付订单" style="whiteSpace=wrap;html=1;" vertex="1" parent="1">
          <mxGeometry x="-185" y="500" width="90" height="30" as="geometry" />
        </mxCell>
        <mxCell id="zE71gSJNUN73lAzTByjQ-65" value="分账记录" style="whiteSpace=wrap;html=1;" vertex="1" parent="1">
          <mxGeometry x="280" y="390" width="120" height="60" as="geometry" />
        </mxCell>
      </root>
    </mxGraphModel>
  </diagram>
</mxfile>
